<?xml version="1.0" standalone="no"?>
<!DOCTYPE svg PUBLIC "-//W3C//DTD SVG 20010904//EN"
 "http://www.w3.org/TR/2001/REC-SVG-20010904/DTD/svg10.dtd">
<svg version="1.0" xmlns="http://www.w3.org/2000/svg"
 width="29.000000pt" height="29.000000pt" viewBox="0 0 460.000000 459.000000"
 preserveAspectRatio="xMidYMid meet">
<metadata>
Created by potrace 1.16, written by Peter Selinger 2001-2019
</metadata>
<g transform="translate(0.000000,459.000000) scale(0.100000,-0.100000)"
fill="white" stroke="none">
<path d="M540 4565 c-228 -74 -427 -274 -508 -510 l-27 -80 -3 -1650 c-2
-1618 -2 -1651 18 -1728 65 -260 268 -477 525 -565 l80 -27 838 -3 837 -3 0
871 0 870 -280 0 -280 0 0 383 0 383 279 0 279 -1 4 230 c5 209 7 239 32 330
31 119 106 276 174 365 100 132 238 242 370 296 135 54 160 57 547 58 l360 1
3 -382 2 -383 -314 0 c-326 0 -351 -3 -395 -43 -52 -48 -61 -87 -61 -287 l0
-185 382 0 383 0 3 -382 2 -383 -385 0 -385 0 0 -870 0 -871 478 3 477 3 88
31 c242 87 425 273 503 511 l29 88 0 1665 0 1665 -29 88 c-77 236 -264 426
-498 508 l-83 29 -1685 -1 -1685 0 -75 -24z"/>
</g>
</svg>
